<?xml version="1.0" standalone="no"?>
<!DOCTYPE svg PUBLIC "-//W3C//DTD SVG 20010904//EN"
 "http://www.w3.org/TR/2001/REC-SVG-20010904/DTD/svg10.dtd">
<svg version="1.0" xmlns="http://www.w3.org/2000/svg"
 width="464.000000pt" height="124.000000pt" viewBox="0 0 464.000000 124.000000"
 preserveAspectRatio="xMidYMid meet">

<g transform="translate(0.000000,124.000000) scale(0.100000,-0.100000)"
fill="#000000" stroke="none">
<path d="M54 1159 c17 -129 80 -266 152 -329 l34 -30 -35 -46 c-76 -99 -111
-181 -124 -292 -15 -128 15 -229 92 -310 73 -75 187 -102 346 -83 123 15 158
30 177 78 26 61 31 65 71 48 33 -14 37 -14 48 2 7 10 31 41 54 68 56 67 70
114 45 149 -11 14 -29 26 -42 26 -14 0 -44 20 -75 49 l-52 50 18 33 c10 18 40
59 68 91 42 47 56 57 83 57 39 0 56 15 56 50 0 14 8 30 19 37 28 18 36 68 16
99 -24 36 -55 44 -209 54 -76 5 -140 11 -142 13 -3 2 0 16 6 31 12 33 13 123
1 130 -9 6 -90 -43 -110 -67 -17 -21 -32 -22 -25 -2 8 19 -6 19 -33 0 -20 -14
-22 -13 -31 13 l-10 27 -2 -25 c-1 -14 -5 -34 -10 -45 -8 -19 -8 -19 -17 3 -8
21 -11 17 -26 -37 -9 -34 -20 -61 -25 -61 -4 0 -20 23 -37 52 -59 100 -204
218 -269 218 -17 0 -18 -5 -12 -51z m914 -246 c30 -18 35 -34 23 -66 -10 -26
-13 -26 -91 -26 -69 0 -87 -3 -124 -25 -53 -31 -194 -179 -202 -212 -8 -31 40
-113 114 -195 61 -67 71 -69 156 -34 33 13 62 23 64 21 7 -8 -49 -96 -104
-165 -2 -2 -24 4 -49 13 -36 14 -51 28 -71 64 -15 26 -62 101 -105 167 -44 67
-79 125 -78 130 0 6 44 48 96 95 103 91 133 130 133 171 0 37 29 69 70 78 47
11 140 2 168 -16z m-433 -2 c3 -6 -11 -15 -32 -20 -54 -15 -61 -13 -34 9 25
21 56 26 66 11z m420 -111 c3 -5 3 -21 -1 -35 -5 -21 -12 -25 -45 -25 -33 0
-41 4 -49 26 -6 14 -10 30 -10 35 0 12 97 12 105 -1z m-58 -396 c4 -11 -24
-26 -90 -50 l-38 -14 3 27 c2 17 12 32 28 40 29 15 92 13 97 -3z"/>
<path d="M790 905 c-18 -21 0 -37 36 -33 36 4 41 22 9 36 -32 15 -30 15 -45
-3z"/>
<path d="M927 904 c-11 -11 13 -34 35 -34 13 0 18 6 16 18 -3 17 -38 29 -51
16z"/>
<path d="M1147 504 c-49 -26 -62 -102 -27 -147 15 -19 37 -29 80 -38 80 -15
98 -29 83 -62 -19 -40 -113 -44 -158 -7 -10 9 -16 7 -24 -9 -17 -31 -14 -39
22 -57 71 -37 197 -13 217 42 28 74 -3 123 -91 144 -79 18 -109 51 -74 80 19
15 87 15 116 -1 19 -10 25 -9 36 7 19 26 17 32 -17 49 -37 19 -127 19 -163 -1z"/>
<path d="M2770 345 l0 -175 80 0 c146 0 180 32 180 170 0 144 -35 180 -179
180 l-81 0 0 -175z m174 96 c16 -18 21 -64 17 -163 -2 -30 -30 -48 -77 -48
l-44 0 0 115 0 115 43 0 c31 0 49 -6 61 -19z"/>
<path d="M3660 345 l0 -175 30 0 c24 0 30 4 30 23 0 12 10 35 23 50 l23 29 24
-51 c22 -48 25 -51 62 -51 l39 0 -43 79 -42 78 37 47 38 46 -35 0 c-31 0 -39
-6 -73 -55 -21 -30 -41 -54 -45 -55 -5 0 -8 47 -8 105 l0 105 -30 0 -30 0 0
-175z"/>
<path d="M1412 315 c3 -91 6 -108 25 -127 27 -26 75 -28 103 -3 18 16 20 16
20 2 0 -12 9 -17 30 -17 l30 0 0 125 0 125 -30 0 -30 0 0 -90 c0 -79 -2 -91
-20 -100 -14 -8 -26 -8 -40 0 -18 9 -20 21 -20 100 l0 90 -36 0 -36 0 4 -105z"/>
<path d="M1690 295 l0 -125 35 0 35 0 0 69 c0 38 5 82 10 96 9 23 15 27 40 23
23 -4 33 1 45 19 9 13 13 28 10 33 -10 15 -61 12 -75 -5 -7 -8 -16 -15 -21
-15 -5 0 -9 7 -9 15 0 10 -11 15 -35 15 l-35 0 0 -125z"/>
<path d="M1890 411 c0 -5 20 -60 44 -122 37 -98 47 -114 68 -117 21 -3 26 4
45 55 11 32 32 89 47 126 l26 68 -32 -3 c-30 -3 -33 -7 -59 -83 -30 -89 -28
-90 -65 28 -16 52 -20 57 -46 57 -15 0 -28 -4 -28 -9z"/>
<path d="M2213 410 c-52 -21 -73 -152 -32 -203 27 -35 85 -51 130 -36 46 16
55 25 40 43 -10 11 -24 14 -57 9 -45 -6 -74 7 -74 33 0 11 18 14 75 14 l75 0
0 30 c0 42 -24 96 -48 109 -24 13 -78 13 -109 1z m79 -52 c8 -7 18 -21 21 -30
6 -16 0 -18 -43 -18 -56 0 -67 17 -28 44 27 19 30 19 50 4z"/>
<path d="M2431 368 c66 -166 72 -188 60 -215 -6 -14 -20 -27 -31 -30 -13 -3
-20 -14 -20 -29 0 -21 5 -24 34 -24 19 0 38 5 41 10 6 10 125 330 125 337 0 2
-13 3 -29 3 -27 0 -31 -5 -52 -67 -12 -38 -24 -72 -27 -77 -2 -4 -18 26 -34
68 -27 71 -32 76 -59 76 l-29 0 21 -52z"/>
<path d="M3143 408 c-12 -6 -28 -25 -35 -42 -17 -42 -14 -130 6 -161 17 -26
82 -49 112 -39 69 22 84 47 84 135 0 54 -3 64 -29 90 -24 23 -38 29 -73 28
-24 0 -53 -5 -65 -11z m96 -62 c7 -8 11 -33 9 -57 -4 -49 -29 -72 -65 -58 -20
7 -23 16 -23 57 0 26 5 53 12 60 16 16 53 15 67 -2z"/>
<path d="M3380 295 l0 -125 30 0 30 0 0 83 c0 87 8 107 45 107 37 0 45 -20 45
-107 l0 -83 31 0 31 0 -4 106 c-3 97 -5 107 -27 125 -28 23 -69 24 -99 3 -20
-14 -22 -14 -22 0 0 11 -10 16 -30 16 l-30 0 0 -125z"/>
<path d="M3975 408 c-31 -18 -43 -39 -51 -86 -7 -48 8 -113 31 -132 36 -30
142 -29 160 1 14 22 -16 38 -59 33 -32 -5 -46 -2 -59 11 -30 29 -19 35 64 35
l81 0 -7 43 c-9 52 -19 72 -47 91 -26 19 -84 20 -113 4z m83 -54 c39 -27 28
-44 -28 -44 -37 0 -50 4 -50 14 0 13 36 46 50 46 3 0 16 -7 28 -16z"/>
<path d="M4180 412 c0 -5 20 -59 44 -119 40 -102 42 -113 30 -142 -7 -17 -20
-31 -29 -31 -9 0 -15 -9 -15 -25 0 -21 5 -25 29 -25 16 0 33 6 39 13 11 13
122 314 122 330 0 5 -12 7 -27 5 -25 -3 -31 -12 -55 -78 -20 -56 -29 -70 -33
-55 -4 11 -17 45 -29 75 -18 45 -27 56 -49 58 -15 2 -27 -1 -27 -6z"/>
</g>
</svg>
